<mxfile modified="2020-04-06T05:56:55.009Z" host="app.diagrams.net" agent="5.0 (Windows NT 10.0; WOW64) AppleWebKit/537.36 (KHTML, like Gecko) Chrome/70.0.3538.25 Safari/537.36 Core/1.70.3756.400 QQBrowser/10.5.4039.400" etag="EH_EfHkFF4vSjus2ySID" version="12.9.8" type="github">
  <diagram id="zNToJbu3nxNMr7Ga2NFg" name="第 1 页">
    <mxGraphModel dx="1915" dy="1332" grid="0" gridSize="10" guides="1" tooltips="1" connect="1" arrows="1" fold="1" page="1" pageScale="1" pageWidth="827" pageHeight="1169" math="0" shadow="0">
      <root>
        <mxCell id="0" />
        <mxCell id="1" parent="0" />
      </root>
    </mxGraphModel>
  </diagram>
</mxfile>
